PathFileType	4	(X/Y/Z)	Run_300 02
DataRate	CameraRate	NumFrames	NumMarkers	Units	OrigDataRate	OrigDataStartFrame	OrigNumFrames
120	120	4	42	mm	120	262	128
Frame#	Time	LASI			RASI			LPSI			RPSI			RTH1			RTH2			RTH3			LTH1			LTH2			LTH3			RTB1			RTB2			LTB1			LTB2			LTB3			RCAL			RTOE			RMT5			LCAL			LTOE			LMT5			LACR			RACR			CLAV			C7			RUA1			RUA2			RUA3			RLEL			RMEL			LUA1			LUA2			LUA3			LLEL			LMEL			RFAsuperior			RFAradius			RFAulna			LFAsuperior			LFAradius			LFAulna			RTB3			
		X1	Y1	Z1	X2	Y2	Z2	X3	Y3	Z3	X4	Y4	Z4	X5	Y5	Z5	X6	Y6	Z6	X7	Y7	Z7	X8	Y8	Z8	X9	Y9	Z9	X10	Y10	Z10	X11	Y11	Z11	X12	Y12	Z12	X13	Y13	Z13	X14	Y14	Z14	X15	Y15	Z15	X16	Y16	Z16	X17	Y17	Z17	X18	Y18	Z18	X19	Y19	Z19	X20	Y20	Z20	X21	Y21	Z21	X22	Y22	Z22	X23	Y23	Z23	X24	Y24	Z24	X25	Y25	Z25	X26	Y26	Z26	X27	Y27	Z27	X28	Y28	Z28	X29	Y29	Z29	X30	Y30	Z30	X31	Y31	Z31	X32	Y32	Z32	X33	Y33	Z33	X34	Y34	Z34	X35	Y35	Z35	X36	Y36	Z36	X37	Y37	Z37	X38	Y38	Z38	X39	Y39	Z39	X40	Y40	Z40	X41	Y41	Z41	X42	Y42	Z42	

236	3.091667	924.5030860000001	1053.981111	-463.45824	940.085137	1032.650607	-204.499354	745.534276	1071.78452	-361.139275	750.005331	1062.655409	-280.471037	879.888885	853.206785	-165.597482	918.312943	746.363222	-180.707365	843.270035	638.295787	-213.305879	913.171914	846.311315	-512.80135	1013.827403	756.047608	-498.27276	995.631225	628.728458	-470.528036	763.1492500000001	431.881311	-290.619176	691.61557	433.234446	-221.974869	1068.153341	409.34245	-388.15242	1024.678374	325.756756	-436.449611	1009.501791	217.874146	-362.215464	431.786073	493.199442	-299.876442	427.178546	259.673828	-300.695045	392.786391	328.696129	-216.810286	864.064645	100.550103	-341.983688	1099.536191	76.75064500000001	-328.572377	1025.488509	54.915699	-418.777268	934.9537330000001	1495.885478	-527.574603	944.624518	1525.820098	-185.322093	989.690439	1452.544431	-321.706206	867.625179	1546.978757	-351.965401	920.027483	1425.258324	-101.155941	907.672502	1335.288482	-99.094897	840.049367	1345.223078	-57.443511	811.384831	1217.194632	-4.000487	766.085372	1206.69623	-75.80500499999999	907.25848	1413.365701	-606.3585880000001	905.82134	1341.445704	-605.160664	809.093559	1344.202881	-608.699672	781.499067	1195.1718	-687.711263	731.866002	1184.980071	-615.941876	913.247348	1193.997378	-38.674794	1033.177214	1172.905811	-173.872069	1041.100214	1127.448819	-117.617067	871.770813	1172.135879	-660.2578140000001	1000.063738	1157.244127	-524.440736	1000.223604	1094.973893	-560.647103	628.417647	355.269625	-291.042779	
237	3.1	922.655939	1051.846769	-463.547746	937.525929	1027.712876	-203.187778	743.8766419999999	1067.735638	-358.606346	747.5576160000001	1057.94088	-278.592035	882.298666	849.208086	-165.457654	925.774223	743.410564	-180.173905	854.527882	633.943667	-213.641934	908.5086	842.146987	-512.936222	1006.740261	750.3593499999999	-499.653156	986.330832	622.770709	-469.63318	781.900461	431.782496	-289.89028	710.951216	432.149052	-220.699163	1056.089379	402.30383	-389.861928	1008.343821	320.230949	-437.106915	989.397788	213.452121	-362.536732	449.479886	495.080301	-297.02583	446.698818	261.498461	-296.81136	413.317101	330.667312	-212.52973	839.534148	100.888753	-341.920504	1074.738206	75.824057	-329.310997	1000.459649	54.361643	-419.238364	934.429671	1489.154137	-528.264421	942.436344	1521.50406	-185.05377	989.353574	1448.152082	-321.297377	867.9422489999999	1543.094063	-353.050204	916.101977	1420.49341	-101.358296	901.371018	1330.07543	-101.117572	834.13991	1340.967564	-59.079427	801.7907750000001	1213.722456	-6.510515	758.164176	1203.8399	-79.032983	910.981843	1404.002906	-607.202642	911.505094	1331.134413	-603.982887	815.375484	1331.831689	-612.838959	794.542401	1181.536562	-690.4087469999999	743.814584	1169.692571	-619.9464359999999	903.450999	1183.588536	-37.606079	1025.63501	1150.505191	-168.468935	1029.595484	1107.846989	-110.053505	884.161865	1158.883541	-661.2671779999999	1009.972825	1145.319235	-522.425684	1012.00832	1083.33348	-559.382401	647.698185	354.156787	-289.613147	
238	3.108333	920.829619	1050.046528	-463.628186	934.691379	1023.868112	-202.48471	742.639651	1065.081284	-357.197074	745.24805	1054.463001	-277.546549	884.359883	845.695933	-165.638566	933.73541	741.071631	-179.762786	866.665356	630.242091	-213.18033	903.514443	838.520321	-513.415566	999.268985	742.841528	-500.589836	975.771757	616.429523	-468.457662	801.291677	431.490961	-289.222875	730.908325	431.035239	-219.488468	1042.652971	395.383223	-391.206504	990.677514	314.87331	-437.784883	968.333142	209.468327	-362.74925	467.399436	495.20986	-294.073172	468.153847	261.590608	-293.309115	435.027697	330.504456	-208.606874	814.706303	101.175558	-341.793354	1049.515536	75.33939100000001	-329.638554	975.251524	53.978546	-419.234611	934.474391	1482.963115	-528.610156	940.616101	1517.67308	-185.083564	988.930921	1443.659957	-320.846819	867.682157	1539.299388	-354.042676	912.097263	1416.918171	-101.735649	895.377575	1326.152426	-103.205555	828.4516609999999	1337.657051	-61.156105	792.305398	1211.111527	-9.263033	750.365805	1201.97752	-82.510025	913.737824	1396.328433	-606.762968	917.4	1322.56514	-602.672734	821.932598	1321.041381	-615.6451080000001	808.605271	1169.045827	-691.887954	756.392345	1155.488257	-623.063142	893.277519	1174.33366	-36.917805	1016.636849	1128.733636	-162.800233	1017.022917	1089.690598	-101.832279	897.787738	1147.479535	-660.187541	1021.062547	1134.567584	-520.087137	1024.438436	1072.696009	-557.701876	667.602609	353.011471	-288.247124	
239	3.116667	918.860396	1048.612651	-463.663022	932.077253	1021.078701	-202.569755	741.437399	1063.651894	-356.758781	743.1336679999999	1052.040107	-277.273973	886.162454	842.445271	-166.150881	942.1642430000001	739.574376	-179.565	879.6811719999999	626.980396	-212.030503	898.340097	835.996074	-514.153038	991.791052	735.281866	-501.226848	965.101095	610.95917	-468.005278	821.13958	431.150462	-288.712383	751.322775	429.856674	-218.422176	1028.012273	389.489029	-391.745437	972.546931	310.506142	-438.487559	946.815426	206.546842	-363.083948	485.503581	493.586161	-291.053861	491.135131	260.011071	-290.266488	457.653626	328.32115	-205.086845	789.823097	101.572136	-341.764013	1024.281707	74.919493	-329.585522	949.993149	53.759511	-419.155754	935.328158	1477.458441	-528.8301269999999	938.996398	1514.486296	-185.120134	988.507933	1439.143918	-320.196649	867.062781	1535.808925	-355.102471	908.039406	1414.260205	-102.209131	889.613761	1323.416418	-104.996235	822.819406	1335.401933	-63.436744	782.8860529999999	1209.534306	-12.111196	742.608747	1201.265538	-86.08690300000001	915.5738239999999	1390.021905	-605.289173	923.263855	1315.848332	-601.452759	828.415111	1311.766163	-616.72192	823.310123	1158.111797	-691.984193	769.017336	1142.911793	-625.191954	882.840543	1166.784145	-36.387911	1006.150328	1108.361289	-156.877693	1003.444259	1073.558809	-93.116186	912.617961	1138.853547	-656.91094	1033.424752	1125.742679	-517.547342	1037.35859	1063.754324	-555.480273	687.9680069999999	351.797293	-287.02557	
